<?xml version="1.0" encoding="utf-8"?>
<!-- Generator: Adobe Illustrator 22.1.0, SVG Export Plug-In . SVG Version: 6.00 Build 0)  -->
<svg version="1.1" id="圖層_1" xmlns="http://www.w3.org/2000/svg" xmlns:xlink="http://www.w3.org/1999/xlink" x="0px" y="0px"
	 viewBox="0 0 717 334" style="enable-background:new 0 0 717 334;" xml:space="preserve">
<style type="text/css">
	.st0{fill:#FFFFFF;}
	.st1{font-family:'Nickainley-Normal';}
	.st2{font-size:148.7602px;}
	.st3{fill:#F9B63E;}
</style>
<g>
</g>
<text transform="matrix(1.0577 0 0 1 1.5728 298.0697)" class="st0 st1 st2">The Bakery</text>
<g>
	<path class="st0" d="M284.3,10.4c1.9,40.4,37.2,72.6,80.4,72.6c43.2,0,78.5-32.2,80.4-72.6H284.3z"/>
</g>
<g>
	<path class="st3" d="M239.8,128.5c2.4,3.6,5.8,6.8,10.2,9c5.6,2.9,12.1,4.5,18.7,4.4c11.9-0.2,22.5-4.1,33.3-8.1
		c13-4.8,35.1-9.1,50.9-10.7c24.4,1.8,141,9.4,140.3-6.4v-1.2c0.7-15.7-115.9-8.1-140.3-6.4c-15.8-1.6-37.9-5.7-50.9-10.6
		c-10.8-4-21.5-8-33.3-8.3c-6.6-0.1-13.1,1.5-18.7,4.4c-4.4,2.3-7.8,5.4-10.2,9c-2.5,3.7-3.8,8-3.8,12.3
		C236,120.5,237.3,124.8,239.8,128.5z M465.7,111.4c5,0,9.1,2.1,9.1,4.7c0,2.6-4.1,4.7-9.1,4.7c-5,0-9.1-2.1-9.1-4.7
		C456.6,113.5,460.7,111.4,465.7,111.4z"/>
	<g>
		<path class="st3" d="M293.8,116.2c0,8.9-8.9,16.3-20.9,18.5v0.6c0.2,0,0.4,0,0.6,0c15.5,0,28-8.6,28-19.1
			c0-10.6-12.5-19.1-28-19.1c-0.2,0-0.4,0-0.6,0v0.6C284.9,99.9,293.8,107.3,293.8,116.2z"/>
	</g>
</g>
<g>
	<g>
		<path class="st0" d="M221.8,0.1c4.4-0.8,8.7,1.9,9.6,6.2c0.9,4.2-2.1,8.3-6.5,9.1c-4.4,0.8-8.7-1.9-9.6-6.2
			C214.4,5,217.3,0.9,221.8,0.1z"/>
		<path class="st0" d="M244.4,48.2c3.1-0.6,6.1,1.4,6.7,4.3c0.6,2.9-1.4,5.8-4.5,6.3c-3.1,0.6-6.1-1.4-6.7-4.3
			C239.2,51.6,241.3,48.8,244.4,48.2z"/>
		<ellipse class="st0" cx="193.1" cy="57.4" rx="10.7" ry="10.1"/>
	</g>
	<g>
		<path class="st0" d="M507.5,0.1c-4.4-0.8-8.7,1.9-9.6,6.2c-0.9,4.2,2.1,8.3,6.5,9.1c4.4,0.8,8.7-1.9,9.6-6.2
			C514.8,5,511.9,0.9,507.5,0.1z"/>
		<path class="st0" d="M484.9,48.2c-3.1-0.6-6.1,1.4-6.7,4.3c-0.6,2.9,1.4,5.8,4.5,6.3c3.1,0.6,6.1-1.4,6.7-4.3
			C490.1,51.6,488,48.8,484.9,48.2z"/>
		<path class="st0" d="M538.2,47.5c-5.8-1.1-11.4,2.5-12.5,8c-1.1,5.5,2.7,10.8,8.5,11.8c5.8,1.1,11.4-2.5,12.5-8
			C547.8,53.8,544,48.5,538.2,47.5z"/>
	</g>
</g>
<rect x="664.8" y="497.2" style="fill:none;" width="1.8" height="29.8"/>
</svg>
